<?xml version="1.0" encoding="UTF-8" standalone="no"?>
<svg
   xmlns:dc="http://purl.org/dc/elements/1.1/"
   xmlns:cc="http://creativecommons.org/ns#"
   xmlns:rdf="http://www.w3.org/1999/02/22-rdf-syntax-ns#"
   xmlns:svg="http://www.w3.org/2000/svg"
   xmlns="http://www.w3.org/2000/svg"
   xmlns:sodipodi="http://sodipodi.sourceforge.net/DTD/sodipodi-0.dtd"
   xmlns:inkscape="http://www.inkscape.org/namespaces/inkscape"
   width="210mm"
   height="297mm"
   viewBox="0 0 210 297"
   version="1.1"
   id="svg8"
   inkscape:version="1.0.1 (1.0.1+r74)"
   sodipodi:docname="logo-lutleychronicles.svg">
  <defs
     id="defs2" />
  <sodipodi:namedview
     id="base"
     pagecolor="#ffffff"
     bordercolor="#666666"
     borderopacity="1.0"
     inkscape:pageopacity="0.0"
     inkscape:pageshadow="2"
     inkscape:zoom="1"
     inkscape:cx="473.21429"
     inkscape:cy="440"
     inkscape:document-units="mm"
     inkscape:current-layer="layer1"
     inkscape:document-rotation="0"
     showgrid="false"
     inkscape:snap-grids="false"
     inkscape:window-width="1920"
     inkscape:window-height="1043"
     inkscape:window-x="1920"
     inkscape:window-y="0"
     inkscape:window-maximized="1">
    <inkscape:grid
       type="xygrid"
       id="grid841" />
  </sodipodi:namedview>
  <metadata
     id="metadata5">
    <rdf:RDF>
      <cc:Work
         rdf:about="">
        <dc:format>image/svg+xml</dc:format>
        <dc:type
           rdf:resource="http://purl.org/dc/dcmitype/StillImage" />
        <dc:title></dc:title>
      </cc:Work>
    </rdf:RDF>
  </metadata>
  <g
     inkscape:label="Layer 1"
     inkscape:groupmode="layer"
     id="layer1">
    <text
       xml:space="preserve"
       style="font-style:italic;font-size:10.5833px;line-height:1.25;font-family:sans-serif;-inkscape-font-specification:'sans-serif Italic';stroke-width:0.264583"
       x="43.036003"
       y="67.979218"
       id="text835"><tspan
         sodipodi:role="line"
         id="tspan833"
         x="43.036003"
         y="67.979218"
         style="stroke-width:0.264583" /></text>
    <path
       style="fill:#800080;stroke-width:0.264583"
       id="path843"
       d="m 28.993282,78.432369 c 0.856091,-0.318129 1.724112,-0.603763 2.564111,-0.963184 2.413339,-1.09253 4.682459,-2.485482 6.92971,-3.882289 1.127832,-0.666798 2.193285,-1.428999 3.26475,-2.18068 0.594503,-0.411152 1.122873,-0.9037 1.640639,-1.405191 0.63106,-0.593133 1.212117,-1.229413 1.73496,-1.919484 0.420227,-0.607353 0.90397,-1.175541 1.284462,-1.809797 0.27587,-0.479957 0.443608,-1.00075 0.598022,-1.529501 0.15903,-0.693661 0.374263,-1.371243 0.555019,-2.059289 0.239715,-0.651193 0.35919,-1.338278 0.512818,-2.013225 0.197704,-0.731827 0.439909,-1.449118 0.607404,-2.188914 0.118329,-0.535183 0.145968,-1.083326 0.157821,-1.62946 0.04176,-0.479507 -0.05528,-0.935437 -0.190611,-1.391021 -0.08775,-0.449344 -0.357698,-0.738214 -0.768972,-0.911203 -0.410988,-0.124992 -0.80459,-0.288851 -1.224179,-0.385258 -0.484987,-0.11948 -0.952484,-0.08017 -1.42594,0.0599 -1.789489,0.653214 -3.417769,1.700329 -4.984512,2.776765 -0.63682,0.538382 -1.406001,0.874136 -2.076117,1.361204 -0.261411,0.169858 -0.408778,0.441669 -0.608068,0.66883 -0.05405,0.06161 -0.128209,0.105214 -0.175715,0.172003 -0.08996,0.126473 -0.254569,0.506325 -0.315254,0.639432 -0.377668,0.800528 -0.659992,1.637956 -0.900657,2.488229 -0.229336,1.04181 -0.386498,2.096182 -0.565015,3.147409 -0.182237,1.454197 -0.279517,2.914634 -0.497925,4.364482 -0.285194,1.876144 -0.794358,3.703256 -1.263795,5.537975 -0.388501,1.630325 -0.556779,3.299476 -0.846971,4.947565 -0.26502,1.656379 -0.796944,3.246832 -1.289302,4.844532 -0.464396,1.415502 -0.926766,2.83229 -1.340379,4.263578 -0.420132,1.554239 -0.871855,3.098191 -1.325229,4.642812 -0.28267,0.90146 -0.631092,1.78015 -1.047139,2.6266 -0.203702,0.40837 -0.560887,0.67506 -0.957982,0.87826 -1.14794,0.67086 -2.715576,1.66665 2.61089,-1.52009 0.103666,-0.062 -0.219501,0.10099 -0.32989,0.15006 -0.302057,0.13425 -0.374949,0.1617 -0.687168,0.2904 -0.828905,0.29631 -1.657094,0.59456 -2.481709,0.903 -0.499369,0.17467 -1.007023,0.36532 -1.542496,0.35619 -0.417056,-0.0938 -0.68983,-0.44547 -0.912954,-0.78676 -0.28481,-0.5472 -0.418612,-1.13966 -0.499868,-1.74581 -0.204643,-0.7244 -0.273415,-1.437869 -0.186624,-2.18369 0.229053,-1.170742 0.669167,-2.288021 1.166304,-3.367929 0.602937,-1.224947 1.357371,-2.365375 2.139117,-3.481655 0.489972,-0.654068 1.000663,-1.322001 1.688564,-1.778473 1.171019,-0.696108 2.823813,-1.699059 -2.659662,1.543859 -0.07594,0.04491 0.161719,-0.07063 0.241946,-0.107352 0.252535,-0.115583 0.254407,-0.119864 0.500899,-0.245758 0.476687,-0.244287 0.979329,-0.392112 1.514854,-0.343334 0.664384,0.124307 1.266497,0.432239 1.839886,0.777672 0.702466,0.378817 1.34126,0.847029 1.973133,1.331243 0.790006,0.548116 1.534916,1.149614 2.268513,1.769681 0.81325,0.66258 1.563032,1.396315 2.385997,2.046748 0.81194,0.587544 1.665727,1.117285 2.538963,1.608608 0.57499,0.30679 1.148146,0.60519 1.672695,0.993855 0.454277,0.337265 0.828967,0.761395 1.22369,1.162485 0.422328,0.35128 0.788358,0.75208 1.144519,1.16823 0.719349,0.70216 1.443225,1.40025 2.171555,2.09361 0.622908,0.70405 1.318305,1.32695 2.068737,1.891211 1.650349,1.13981 1.91258,0.0123 4.232034,-1.810551 0.09692,-0.0762 -0.0434,-0.2427 -0.06511,-0.36404 -0.03683,-0.15018 -0.07365,-0.30035 -0.110474,-0.45053 0,0 -3.429087,1.83496 -3.429087,1.83496 v 0 c 0.02228,0.13982 0.04455,0.27964 0.06683,0.41946 -0.100013,1.520451 -0.08246,0.18426 3.264601,-1.642 0.0423,-0.0231 -0.01712,0.10324 -0.05421,0.13401 -0.03528,0.0293 -0.09027,0.0308 -0.135509,0.0234 -0.144209,-0.0234 -0.368372,-0.17121 -0.477846,-0.23417 -0.760055,-0.52878 -1.451483,-1.1393 -2.063946,-1.83467 -0.722016,-0.6758 -1.425249,-1.3684 -2.114005,-2.07793 -0.358669,-0.427537 -0.718463,-0.850924 -1.151517,-1.206902 -0.422484,-0.396211 -0.800867,-0.840809 -1.263433,-1.194782 -0.533127,-0.416329 -1.109041,-0.743516 -1.717564,-1.037606 -0.876533,-0.451561 -1.718876,-0.970393 -2.523559,-1.540046 -0.825799,-0.6403 -1.568291,-1.374426 -2.372963,-2.040533 -0.743222,-0.612937 -1.468667,-1.24306 -2.264497,-1.789655 -0.638074,-0.496732 -1.271069,-0.995267 -1.995556,-1.362054 -0.593728,-0.386554 -1.207844,-0.740323 -1.902373,-0.911783 -0.603398,-0.164306 -1.084437,-0.09915 -1.662041,0.140115 -1.65572,0.775759 -3.301484,1.631265 -4.782988,2.705452 -0.617214,0.54188 -1.122621,1.192879 -1.586574,1.868371 -0.768809,1.138428 -1.516428,2.294977 -2.102799,3.540699 -0.496626,1.121402 -0.949302,2.278923 -1.144089,3.495744 -0.06772,0.7753 0.0045,1.52631 0.208658,2.27914 0.100967,0.65746 0.257815,1.30381 0.565117,1.89918 0.269091,0.4323 0.612601,0.83504 1.078396,1.061711 0.573607,0.18547 1.147336,-0.0293 1.699946,-0.208751 0.826153,-0.30322 1.640603,-0.63863 2.484975,-0.88927 1.804477,-0.72989 3.494977,-1.69751 5.132015,-2.75653 0.378592,-0.29096 0.683509,-0.62507 0.861219,-1.07752 0.386469,-0.85314 0.667009,-1.752413 0.942969,-2.645813 0.445249,-1.546437 0.891019,-3.092574 1.324698,-4.642366 0.419547,-1.42934 0.903671,-2.838172 1.34458,-4.260916 0.48006,-1.610135 0.987314,-3.215082 1.253043,-4.879229 0.279469,-1.640051 0.470855,-3.296711 0.853189,-4.917908 0.465296,-1.846432 0.951121,-3.690506 1.249106,-5.573723 0.213368,-1.457823 0.3453,-2.925244 0.553696,-4.38363 0.173543,-1.043218 0.336267,-2.089991 0.604171,-3.114328 0.256026,-0.831398 0.532688,-1.657416 0.94461,-2.427327 0.296301,-0.508141 0.683072,-0.963835 1.170106,-1.300089 0.698844,-0.444809 1.418395,-0.856607 2.08138,-1.356413 1.169061,-0.735803 3.077273,-1.802373 -2.489695,1.401157 -0.160319,0.09226 0.636608,-0.357 0.501353,-0.237847 0.07861,-0.03913 0.157211,-0.07826 0.235816,-0.117385 0.432601,-0.147765 0.838488,-0.318699 1.305859,-0.214051 0.418602,0.0632 0.803214,0.199509 1.1944,0.356251 0.354121,0.05302 0.502293,0.212725 0.570794,0.574696 0.120853,0.420145 0.173016,0.842738 0.136607,1.280996 -0.01728,0.520666 -0.05398,1.041522 -0.17525,1.550067 -0.176567,0.736827 -0.423598,1.453385 -0.605152,2.189046 -0.155998,0.671737 -0.295849,1.347293 -0.518835,2.001242 -0.184795,0.684101 -0.381854,1.364914 -0.570304,2.048029 -0.167148,0.499975 -0.353988,0.991772 -0.643771,1.436139 -0.407736,0.598205 -0.828971,1.188628 -1.270902,1.761882 -0.547158,0.667655 -1.139923,1.292241 -1.776293,1.876121 -0.51842,0.483073 -1.056138,0.94489 -1.643134,1.344025 -1.05042,0.737042 -2.094553,1.483958 -3.203906,2.132076 -1.57236,0.958085 -1.00965,0.60653 1.782252,-0.999072 0.207251,-0.11919 -0.413044,0.240956 -0.621909,0.357296 -0.345373,0.192381 -0.693359,0.375928 -1.052001,0.542308 -0.142463,0.06609 -0.28815,0.124992 -0.432226,0.187487 -0.818679,0.379785 -1.668087,0.677407 -2.520008,0.973796 0,0 -3.094739,2.407478 -3.094739,2.407478 z" />
    <path
       style="fill:#000080;stroke-width:0.264583"
       id="path873"
       d="m 48.318056,96.436189 c -0.135744,-0.93338 -0.197979,-1.87472 -0.239662,-2.81628 -0.0263,-0.64354 -0.02709,-1.28768 -0.02747,-1.93163 0.03927,-0.49519 -0.0028,-0.91471 -0.25417,-1.34785 -0.276341,-0.4787 -0.713464,-0.79845 -1.201745,-1.03467 -0.566663,-0.20101 -1.126535,-0.4162 -1.718101,-0.53031 -0.874345,-0.10955 -1.743617,-0.25428 -2.616189,-0.37679 -1.137992,-0.16869 -2.289263,-0.19812 -3.437422,-0.2226 -0.799481,-0.008 -1.600557,-0.0646 -2.394506,0.051 -1.723697,0.51062 -3.296988,1.52684 -4.655862,2.7015 -0.579623,0.47607 -1.157348,0.93819 -1.671666,1.4864 -0.51598,0.60201 -0.931458,1.24998 -1.219968,1.98673 -0.386654,1.20085 -0.651716,2.4329 -0.874469,3.67308 -0.290901,1.35126 -0.546849,2.708961 -0.799076,4.067801 -0.219194,1.14864 -0.316693,2.31577 -0.373774,3.48235 -0.103532,1.23825 -0.277471,2.46872 -0.39959,3.70529 -0.110413,0.98475 -0.145727,1.97319 -0.15317,2.96312 2.65e-4,1.15369 0.0074,2.30735 0.0069,3.46105 -0.006,0.87786 -0.01373,1.75567 -0.01728,2.63353 -0.04109,0.73003 0.02535,1.44392 0.172778,2.15805 0.190516,0.87273 0.354235,1.75864 0.651182,2.60281 0.307888,0.86953 0.764675,1.66025 1.281182,2.42041 0.356571,0.55685 0.731795,1.10308 1.227238,1.54484 0.475466,0.44106 1.039794,0.69439 1.642181,0.90993 0.897617,0.2927 1.833983,0.43057 2.76234,0.58546 1.068364,0.17569 2.148409,0.2503 3.229419,0.28234 1.25666,0.0249 2.513725,0.0178 3.770538,0.0113 1.459209,0.0179 2.916711,-0.0143 4.364246,-0.20618 1.898812,-0.31503 3.608208,-1.34733 5.101757,-2.56137 0.360971,-0.35647 0.676047,-0.72731 0.891833,-1.1904 0.303091,-0.41254 0.366388,-0.94664 0.425816,-1.44244 0.04322,-0.4526 0.04263,-0.90801 0.0423,-1.36225 -0.0024,-0.38635 -0.0049,-0.77271 -0.0064,-1.15907 0,0 -3.496678,1.78281 -3.496678,1.78281 v 0 c 5.29e-4,0.38673 0.0013,0.77346 2.65e-4,1.16019 -0.0019,0.43763 -0.0019,0.87677 -0.06099,1.31133 -0.0767,0.47425 -0.212418,0.91478 -0.487426,1.31517 -0.254178,0.39676 -0.576115,0.7463 -0.958014,1.02418 -1.221441,0.74418 -0.706395,0.42758 2.939087,-1.66998 0.07393,-0.0425 -0.151694,0.078 -0.227513,0.1171 -0.340122,0.17527 -0.693899,0.27467 -1.069279,0.35523 -1.4409,0.23974 -2.892854,0.32012 -4.353798,0.26924 -1.245534,-0.005 -2.491174,-0.002 -3.736583,-0.0224 -1.070446,-0.0275 -2.142549,-0.0724 -3.202366,-0.23676 -0.905833,-0.14896 -1.813809,-0.29669 -2.696615,-0.55319 -0.56741,-0.18345 -1.102074,-0.38734 -1.547376,-0.79902 -0.496615,-0.38793 -0.850974,-0.91944 -1.202989,-1.43532 -0.503412,-0.72903 -0.934696,-1.4941 -1.22247,-2.33557 -0.286954,-0.82608 -0.457354,-1.69229 -0.62461,-2.54903 -0.112816,-0.69738 -0.159459,-1.39307 -0.130532,-2.10001 -0.0042,-0.8714 -0.01344,-1.74272 -0.02138,-2.61409 -0.0027,-1.15532 -0.0024,-2.31064 0.01476,-3.46588 0.01865,-0.97435 0.05314,-1.94901 0.140632,-2.91994 0.123372,-1.24696 0.312888,-2.48602 0.415401,-3.735 0.05435,-1.14834 0.148026,-2.29523 0.373951,-3.42457 0.24769,-1.354051 0.500851,-2.706791 0.777486,-4.055371 0.243256,-1.22639 0.521192,-2.45182 0.968526,-3.62237 0.328792,-0.68565 0.758878,-1.31111 1.286637,-1.86128 0.532016,-0.52402 1.129856,-0.96831 1.697106,-1.45271 1.132486,-0.90467 2.50366,-1.51406 -2.7096,1.457 -0.568505,0.32399 1.155165,-0.68892 0.612836,-0.32001 0.776073,-0.23255 1.588158,-0.15668 2.388367,-0.16034 1.137946,0.0172 2.278435,0.0414 3.408677,0.18714 0.859854,0.1148 1.708767,0.29478 2.568528,0.39983 0.579302,0.0716 1.114372,0.27196 1.668653,0.44513 0.435467,0.16378 0.811813,0.42811 1.053888,0.83507 0.213143,0.35882 0.158189,0.75941 0.162327,1.16368 0.0076,0.64381 0.03195,1.28719 0.07063,1.92992 0.05774,0.93948 0.140946,1.87723 0.193606,2.81672 0,0 3.497569,-1.7821 3.497569,-1.7821 z" />
  </g>
  <g
     inkscape:groupmode="layer"
     id="layer2"
     inkscape:label="Layer 2">
    <text
       xml:space="preserve"
       style="font-style:italic;font-size:14.1111px;line-height:1.25;font-family:sans-serif;-inkscape-font-specification:'sans-serif Italic';stroke-width:0.264583"
       x="37.307976"
       y="87.00634"
       id="text863"><tspan
         sodipodi:role="line"
         id="tspan861"
         x="37.307976"
         y="87.00634"
         style="font-size:14.1111px;stroke-width:0.264583">utley</tspan></text>
    <text
       xml:space="preserve"
       style="font-style:italic;font-size:14.1111px;line-height:1.25;font-family:sans-serif;-inkscape-font-specification:'sans-serif Italic';stroke-width:0.264583"
       x="37.244884"
       y="119.85638"
       id="text877"><tspan
         sodipodi:role="line"
         id="tspan875"
         x="37.244884"
         y="119.85638"
         style="font-size:14.1111px;stroke-width:0.264583">hronicles</tspan></text>
  </g>
</svg>
